<svg xmlns="http://www.w3.org/2000/svg" viewBox="0 0 1280 320" width="1280" height="320" role="img" aria-label="CastIron — animated: TTS provider dies mid-run, the pipeline reroutes, gate passes, episode sealed on Backblaze B2 with the fallback recorded in the manifest">
  <!-- Standalone typography: wordmark = outlined Space Grotesk paths (zero font dependency); labels use built-in system stacks.
       Zero external refs · SMIL + CSS only · renders animated inside GitHub README <img> · 8s master loop. -->
  <defs>
    <linearGradient id="brand" x1="0" y1="1" x2="1" y2="0">
      <stop offset="0" stop-color="#059669"/><stop offset=".55" stop-color="#10B981"/><stop offset="1" stop-color="#34D399"/>
    </linearGradient>
    <linearGradient id="beam" x1="0" y1="0" x2="1" y2="0">
      <stop offset="0" stop-color="rgba(230,237,243,0)"/><stop offset=".5" stop-color="rgba(230,237,243,.06)"/><stop offset="1" stop-color="rgba(230,237,243,0)"/>
    </linearGradient>
    <pattern id="grid" width="48" height="48" patternUnits="userSpaceOnUse">
      <path d="M48 0H0V48" fill="none" stroke="rgba(148,163,184,0.07)" stroke-width="1"/>
    </pattern>
    <filter id="soft" x="-60%" y="-60%" width="220%" height="220%"><feGaussianBlur stdDeviation="6"/></filter>
    <filter id="aur" x="-120%" y="-120%" width="340%" height="340%"><feGaussianBlur stdDeviation="46"/></filter>
    <clipPath id="stage"><rect x="1" y="1" width="1278" height="318" rx="24"/></clipPath>
    <clipPath id="ironClip"><path transform="translate(210,150)" d="M12.7 0L4.2 0L4.2-44.8L12.7-44.8L12.7 0M29.4 0L21.4 0L21.4-31.7L29.3-31.7L29.3-28.2L30.5-28.2Q31.2-30.1 32.8-31Q34.4-31.9 36.6-31.9L40.4-31.9L40.4-24.7L36.5-24.7Q33.4-24.7 31.4-23.1Q29.4-21.4 29.4-18L29.4 0M60.7 0.9Q55.9 0.9 52.2-1Q48.4-2.9 46.2-6.6Q44-10.2 44-15.4L44-16.4Q44-21.5 46.2-25.2Q48.4-28.8 52.2-30.7Q55.9-32.6 60.7-32.6Q65.4-32.6 69.2-30.7Q73-28.8 75.1-25.2Q77.3-21.5 77.3-16.4L77.3-15.4Q77.3-10.2 75.1-6.6Q73-2.9 69.2-1Q65.4 0.9 60.7 0.9M60.7-6.3Q64.4-6.3 66.8-8.7Q69.2-11.1 69.2-15.6L69.2-16.2Q69.2-20.7 66.8-23.1Q64.4-25.5 60.7-25.5Q57-25.5 54.5-23.1Q52.1-20.7 52.1-16.2L52.1-15.6Q52.1-11.1 54.5-8.7Q57-6.3 60.7-6.3M92.8 0L84.7 0L84.7-31.7L92.7-31.7L92.7-27.6L93.8-27.6Q94.6-29.2 96.7-30.8Q98.8-32.3 103.1-32.3Q106.8-32.3 109.6-30.6Q112.4-28.9 113.9-25.9Q115.5-22.9 115.5-18.9L115.5 0L107.4 0L107.4-18.3Q107.4-21.9 105.6-23.7Q103.9-25.5 100.6-25.5Q96.9-25.5 94.8-23Q92.8-20.5 92.8-16.1"/></clipPath>
    <style>
      .d { font-family: 'Segoe UI', system-ui, -apple-system, sans-serif; }
      .m { font-family: ui-monospace, SFMono-Regular, Menlo, Consolas, monospace; }
      .aur1 { animation: drift1 14s ease-in-out infinite alternate; }
      .aur2 { animation: drift2 18s ease-in-out infinite alternate; }
      @keyframes drift1 { from { transform: translate(0,0);} to { transform: translate(-90px,30px);} }
      @keyframes drift2 { from { transform: translate(0,0);} to { transform: translate(110px,-24px);} }
      .beam { animation: sweep 8s linear infinite; }
      @keyframes sweep { 0% { transform: translateX(-360px) skewX(-18deg);} 60%,100% { transform: translateX(1560px) skewX(-18deg);} }
      .brand-in { animation: rise 1.1s cubic-bezier(.16,1,.3,1) both; }
      @keyframes rise { from { opacity:0; transform: translateY(14px);} to { opacity:1; transform: translateY(0);} }
      .shine { animation: shine 3.4s ease-in-out infinite; }
      @keyframes shine { 0%,55% { transform: translateX(-140px) skewX(-24deg);} 90%,100% { transform: translateX(220px) skewX(-24deg);} }
      .pulse-metric { animation: pm 2.4s ease-in-out infinite; }
      @keyframes pm { 0%,100% { opacity:.75;} 50% { opacity:1;} }
      .arcb { transform-box: fill-box; transform-origin: center; animation: ab 2.8s ease-in-out infinite; }
      .arcb.a2 { animation-delay: .35s; } .arcb.a3 { animation-delay: .7s; }
      @keyframes ab { 0%,100% { opacity:.55;} 50% { opacity:1;} }
      .story { animation: story 8s linear infinite; }
      @keyframes story { 0% { opacity:0;} 2%,96% { opacity:1;} 100% { opacity:0;} }
      .jit { animation: jit 8s steps(2) infinite; transform-box: fill-box; transform-origin: center; }
      @keyframes jit { 0%,12.9% { transform: translate(0,0);} 13.4% { transform: translate(-2px,1px);} 14% { transform: translate(2px,-1px);} 14.6% { transform: translate(-1px,-1px);} 15.2%,100% { transform: translate(0,0);} }
      .seal { transform-box: fill-box; transform-origin: center; animation: seal 8s cubic-bezier(.2,1.4,.4,1) infinite; }
      @keyframes seal { 0%,61% { opacity:0; transform: scale(.5) rotate(-10deg);} 65% { opacity:1; transform: scale(1.12) rotate(1deg);} 67%,96% { opacity:1; transform: scale(1) rotate(0);} 100% { opacity:0; transform: scale(1);} }
      .lockpop { transform-box: fill-box; transform-origin: center; animation: lp 8s ease-out infinite; }
      @keyframes lp { 0%,55% { transform: scale(1);} 58% { transform: scale(1.18);} 61%,100% { transform: scale(1);} }
      .badge23 { transform-box: fill-box; transform-origin: center; animation: b23 8s cubic-bezier(.2,1.4,.4,1) infinite; }
      @keyframes b23 { 0%,25% { opacity:0; transform: scale(.4);} 28% { opacity:1; transform: scale(1.15);} 30%,96% { opacity:1; transform: scale(1);} 100% { opacity:0;} }
      @media (prefers-reduced-motion: reduce) { * { animation: none !important; } }
    </style>
  </defs>

  <!-- ===== Backdrop: aurora drift + beam sweep + grid ===== -->
  <rect x="1" y="1" width="1278" height="318" rx="24" fill="#0A0F14"/>
  <g clip-path="url(#stage)">
    <g class="aur1"><circle cx="1030" cy="30" r="190" fill="rgba(16,185,129,0.16)" filter="url(#aur)"/></g>
    <g class="aur2"><circle cx="180" cy="300" r="170" fill="rgba(245,158,11,0.10)" filter="url(#aur)"/></g>
    <rect x="1" y="1" width="1278" height="318" fill="url(#grid)"/>
    <g class="beam"><rect x="0" y="-40" width="220" height="400" fill="url(#beam)"/></g>
  </g>
  <rect x="1" y="1" width="1278" height="318" rx="24" fill="none" stroke="rgba(148,163,184,0.22)" stroke-width="2"/>

  <!-- ===== Left: brand (outlined wordmark, standalone) ===== -->
  <g class="brand-in">
    <g transform="translate(64,-1) scale(0.30)">
      <circle cx="40" cy="250" r="27" fill="url(#brand)"/>
      <path class="arcb" d="M 40 172 A 78 78 0 0 1 118 250" fill="none" stroke="url(#brand)" stroke-width="25" stroke-linecap="round"/>
      <path class="arcb a2" d="M 40 116 A 134 134 0 0 1 120 155" fill="none" stroke="url(#brand)" stroke-width="25" stroke-linecap="round"/>
      <path class="arcb a2" d="M 160 194 A 134 134 0 0 1 174 250" fill="none" stroke="url(#brand)" stroke-width="25" stroke-linecap="round"/>
      <path class="arcb a3" d="M 136 128 A 160 160 0 0 1 188 180" fill="none" stroke="#F59E0B" stroke-width="21" stroke-linecap="round"/>
    </g>
    <g>
      <path transform="translate(64,150)" fill="#EDF3F0" d="M21.2 0.9Q12.9 0.9 8.1-3.7Q3.2-8.4 3.2-17L3.2-27.8Q3.2-36.4 8.1-41.1Q12.9-45.7 21.2-45.7Q29.5-45.7 34-41.2Q38.5-36.7 38.5-28.8L38.5-28.4L30.2-28.4L30.2-29.1Q30.2-33 28-35.6Q25.8-38.1 21.2-38.1Q16.8-38.1 14.2-35.4Q11.6-32.6 11.6-27.9L11.6-16.9Q11.6-12.2 14.2-9.4Q16.8-6.7 21.2-6.7Q25.8-6.7 28-9.2Q30.2-11.8 30.2-15.7L30.2-16.9L38.5-16.9L38.5-16Q38.5-8.1 34-3.6Q29.5 0.9 21.2 0.9M55.6 0.9Q52.2 0.9 49.5-0.3Q46.8-1.5 45.2-3.7Q43.6-6 43.6-9.3Q43.6-12.5 45.2-14.8Q46.8-17 49.6-18.1Q52.4-19.2 55.9-19.2L64.6-19.2L64.6-21Q64.6-23.2 63.2-24.7Q61.8-26.1 58.8-26.1Q55.7-26.1 54.3-24.7Q52.8-23.4 52.4-21.2L44.9-23.7Q45.7-26.1 47.4-28.1Q49.1-30.1 51.9-31.4Q54.8-32.6 58.9-32.6Q65.2-32.6 68.8-29.5Q72.4-26.4 72.4-20.4L72.4-8.6Q72.4-6.7 74.2-6.7L76.8-6.7L76.8 0L71.4 0Q69.1 0 67.5-1.2Q66-2.3 66-4.2L66-4.3L64.8-4.3Q64.5-3.5 63.6-2.3Q62.7-1 60.8-0.1Q58.9 0.9 55.6 0.9M57-5.6Q60.4-5.6 62.5-7.5Q64.6-9.4 64.6-12.5L64.6-13.2L56.5-13.2Q54.3-13.2 53-12.2Q51.7-11.3 51.7-9.5Q51.7-7.8 53.1-6.7Q54.4-5.6 57-5.6M95.6 0.9Q89.4 0.9 85.4-1.8Q81.5-4.5 80.6-9.5L88.1-11.4Q88.5-9.2 89.6-7.9Q90.6-6.6 92.2-6Q93.8-5.5 95.6-5.5Q98.4-5.5 99.8-6.5Q101.1-7.5 101.1-9Q101.1-10.4 99.8-11.2Q98.6-12 95.7-12.5L94-12.9Q90.6-13.5 87.9-14.6Q85.1-15.7 83.5-17.7Q81.8-19.7 81.8-22.8Q81.8-27.6 85.2-30.1Q88.7-32.6 94.3-32.6Q99.6-32.6 103.2-30.3Q106.7-27.9 107.8-24.1L100.3-21.8Q99.8-24.2 98.2-25.2Q96.6-26.2 94.3-26.2Q92-26.2 90.8-25.4Q89.6-24.6 89.6-23.2Q89.6-21.7 90.9-21Q92.2-20.2 94.3-19.8L96.1-19.5Q99.7-18.9 102.6-17.8Q105.5-16.8 107.2-14.8Q108.9-12.9 108.9-9.5Q108.9-4.5 105.3-1.8Q101.7 0.9 95.6 0.9M136.4 0L127.5 0Q124.4 0 122.4-2Q120.4-3.9 120.4-7.2L120.4-25.1L112.5-25.1L112.5-31.7L120.4-31.7L120.4-41.6L128.5-41.6L128.5-31.7L137.2-31.7L137.2-25.1L128.5-25.1L128.5-8.6Q128.5-6.7 130.3-6.7L136.4-6.7"/>
      <path transform="translate(210,150)" fill="url(#brand)" d="M12.7 0L4.2 0L4.2-44.8L12.7-44.8L12.7 0M29.4 0L21.4 0L21.4-31.7L29.3-31.7L29.3-28.2L30.5-28.2Q31.2-30.1 32.8-31Q34.4-31.9 36.6-31.9L40.4-31.9L40.4-24.7L36.5-24.7Q33.4-24.7 31.4-23.1Q29.4-21.4 29.4-18L29.4 0M60.7 0.9Q55.9 0.9 52.2-1Q48.4-2.9 46.2-6.6Q44-10.2 44-15.4L44-16.4Q44-21.5 46.2-25.2Q48.4-28.8 52.2-30.7Q55.9-32.6 60.7-32.6Q65.4-32.6 69.2-30.7Q73-28.8 75.1-25.2Q77.3-21.5 77.3-16.4L77.3-15.4Q77.3-10.2 75.1-6.6Q73-2.9 69.2-1Q65.4 0.9 60.7 0.9M60.7-6.3Q64.4-6.3 66.8-8.7Q69.2-11.1 69.2-15.6L69.2-16.2Q69.2-20.7 66.8-23.1Q64.4-25.5 60.7-25.5Q57-25.5 54.5-23.1Q52.1-20.7 52.1-16.2L52.1-15.6Q52.1-11.1 54.5-8.7Q57-6.3 60.7-6.3M92.8 0L84.7 0L84.7-31.7L92.7-31.7L92.7-27.6L93.8-27.6Q94.6-29.2 96.7-30.8Q98.8-32.3 103.1-32.3Q106.8-32.3 109.6-30.6Q112.4-28.9 113.9-25.9Q115.5-22.9 115.5-18.9L115.5 0L107.4 0L107.4-18.3Q107.4-21.9 105.6-23.7Q103.9-25.5 100.6-25.5Q96.9-25.5 94.8-23Q92.8-20.5 92.8-16.1"/>
      <g clip-path="url(#ironClip)"><rect class="shine" x="196" y="96" width="46" height="70" fill="rgba(255,255,255,0.35)"/></g>
    </g>
    <text class="d" x="66" y="186" font-size="19" fill="#8FA3B0">Script to published episode —</text>
    <text class="d" x="66" y="210" font-size="19" fill="#E6EDF3" font-weight="600">even when your TTS provider dies.</text>
    <text class="m pulse-metric" x="66" y="242" font-size="14" fill="#FBBF24" letter-spacing="3">0 DROPPED EPISODES · 96/96 VERIFIED</text>
    <text class="m" x="66" y="270" font-size="13" fill="#5C6B76">Genblaze · Backblaze B2 · FastAPI · SSE · ffmpeg</text>
  </g>

  <!-- ===== Right: the outage story (8s master timeline) ===== -->
  <g class="story">
    <path d="M 688 160 C 726 160 720 104 758 104" fill="none" stroke="rgba(16,185,129,0.5)" stroke-width="2.5"/>
    <path d="M 833 128 L 833 196" fill="none" stroke="rgba(245,158,11,0.9)" stroke-width="3" pathLength="100" stroke-dasharray="100" stroke-dashoffset="100" stroke-linecap="round">
      <animate attributeName="stroke-dashoffset" values="100;100;0;0" keyTimes="0;0.18;0.26;1" dur="8s" repeatCount="indefinite"/>
    </path>
    <path d="M 908 220 C 946 220 938 160 976 160" fill="none" stroke="rgba(16,185,129,0.5)" stroke-width="2.5"/>
    <path d="M 1036 160 L 1066 160" fill="none" stroke="rgba(16,185,129,0.5)" stroke-width="2.5"/>

    <g class="m" font-size="14">
      <rect x="568" y="136" width="120" height="48" rx="10" fill="rgba(20,30,40,0.92)" stroke="rgba(148,163,184,0.3)"/>
      <text x="628" y="165" text-anchor="middle" fill="#E6EDF3">script.md</text>

      <g class="jit">
        <rect x="758" y="80" width="150" height="48" rx="10" fill="rgba(20,30,40,0.92)" stroke="rgba(148,163,184,0.3)">
          <animate attributeName="stroke" values="rgba(148,163,184,.3);rgba(148,163,184,.3);rgba(239,68,68,.95);rgba(239,68,68,.95);rgba(239,68,68,.45);rgba(239,68,68,.45)" keyTimes="0;0.125;0.14;0.5;0.6;1" dur="8s" repeatCount="indefinite"/>
        </rect>
        <text x="826" y="109" text-anchor="middle" fill="#E6EDF3">elevenlabs</text>
        <g opacity="0">
          <animate attributeName="opacity" values="0;0;1;1" keyTimes="0;0.13;0.15;1" dur="8s" repeatCount="indefinite"/>
          <circle cx="898" cy="90" r="11" fill="#EF4444"/>
          <text x="898" y="95" text-anchor="middle" font-size="13" fill="#0A0F14" font-weight="700">✕</text>
        </g>
      </g>
      <text x="826" y="64" text-anchor="middle" font-size="12" fill="#EF4444" opacity="0">MODEL_ERROR · 402ms
        <animate attributeName="opacity" values="0;0;1;1;0;0" keyTimes="0;0.14;0.17;0.42;0.5;1" dur="8s" repeatCount="indefinite"/>
      </text>

      <rect x="758" y="196" width="150" height="48" rx="10" fill="rgba(20,30,40,0.92)" stroke="rgba(148,163,184,0.3)">
        <animate attributeName="stroke" values="rgba(148,163,184,.3);rgba(148,163,184,.3);rgba(245,158,11,.95);rgba(245,158,11,.95)" keyTimes="0;0.24;0.28;1" dur="8s" repeatCount="indefinite"/>
      </rect>
      <text x="826" y="225" text-anchor="middle" fill="#E6EDF3">lmnt/blizzard</text>
      <g class="badge23">
        <rect x="868" y="186" width="64" height="20" rx="10" fill="#F59E0B"/>
        <text x="900" y="200" text-anchor="middle" font-size="11" fill="#0A0F14" font-weight="700">rung 2/3</text>
      </g>
      <text x="826" y="266" text-anchor="middle" font-size="12" fill="#FBBF24" opacity="0">fallback recorded in manifest
        <animate attributeName="opacity" values="0;0;1;1" keyTimes="0;0.3;0.34;1" dur="8s" repeatCount="indefinite"/>
      </text>

      <circle cx="1006" cy="160" r="22" fill="rgba(20,30,40,0.92)" stroke="rgba(148,163,184,0.3)"/>
      <circle cx="1006" cy="160" r="22" fill="none" stroke="#34D399" stroke-width="3.5" pathLength="100" stroke-dasharray="100" stroke-dashoffset="100" stroke-linecap="round" transform="rotate(-90 1006 160)">
        <animate attributeName="stroke-dashoffset" values="100;100;0;0" keyTimes="0;0.36;0.46;1" dur="8s" repeatCount="indefinite"/>
      </circle>
      <text x="1006" y="166" text-anchor="middle" font-size="15" fill="#34D399" opacity="0">✓
        <animate attributeName="opacity" values="0;0;1;1" keyTimes="0;0.45;0.48;1" dur="8s" repeatCount="indefinite"/>
      </text>
      <text x="1006" y="204" text-anchor="middle" font-size="11.5" fill="#5C6B76" opacity="0">gate −16.2 LUFS
        <animate attributeName="opacity" values="0;0;1;1" keyTimes="0;0.46;0.5;1" dur="8s" repeatCount="indefinite"/>
      </text>

      <circle cx="1161" cy="160" r="10" fill="none" stroke="#34D399" stroke-width="2" opacity="0">
        <animate attributeName="r" values="10;10;52;52" keyTimes="0;0.55;0.66;1" dur="8s" repeatCount="indefinite"/>
        <animate attributeName="opacity" values="0;0;0.8;0;0" keyTimes="0;0.55;0.58;0.66;1" dur="8s" repeatCount="indefinite"/>
      </circle>
      <rect x="1066" y="118" width="190" height="84" rx="14" fill="rgba(20,30,40,0.92)" stroke="rgba(16,185,129,0.4)">
        <animate attributeName="stroke" values="rgba(16,185,129,.35);rgba(16,185,129,.35);rgba(52,211,153,1);rgba(16,185,129,.5)" keyTimes="0;0.55;0.62;1" dur="8s" repeatCount="indefinite"/>
      </rect>
      <g class="lockpop"><text x="1161" y="148" text-anchor="middle" font-size="15" fill="#34D399" font-weight="600">B2 🔒 ci-published</text></g>
      <text x="1161" y="168" text-anchor="middle" font-size="11.5" fill="#8FA3B0">object-lock · 30d</text>
      <g class="seal">
        <rect x="1079" y="176" width="164" height="20" rx="10" fill="none" stroke="#34D399" stroke-width="1.5"/>
        <text x="1161" y="190" text-anchor="middle" font-size="11.5" fill="#34D399">manifest.verify() ✓</text>
      </g>
      <g opacity="0">
        <animate attributeName="opacity" values="0;0;1;1" keyTimes="0;0.7;0.74;1" dur="8s" repeatCount="indefinite"/>
        <rect x="1066" y="212" width="92" height="20" rx="10" fill="rgba(20,30,40,0.92)" stroke="rgba(148,163,184,0.3)"/>
        <text x="1112" y="226" text-anchor="middle" font-size="10.5" fill="#8FA3B0">event-driven</text>
      </g>
      <g opacity="0">
        <animate attributeName="opacity" values="0;0;1;1" keyTimes="0;0.74;0.78;1" dur="8s" repeatCount="indefinite"/>
        <rect x="1164" y="212" width="92" height="20" rx="10" fill="rgba(20,30,40,0.92)" stroke="rgba(148,163,184,0.3)"/>
        <text x="1210" y="226" text-anchor="middle" font-size="10.5" fill="#8FA3B0">idempotent ✓</text>
      </g>
    </g>

    <g filter="url(#soft)" opacity=".9">
      <circle r="4.5" fill="#34D399">
        <animateMotion dur="8s" repeatCount="indefinite" keyPoints="0;0;1;1" keyTimes="0;0.04;0.11;1" calcMode="linear" path="M 688 160 C 726 160 720 104 758 104"/>
        <animate attributeName="opacity" values="0;0;1;1;0;0" keyTimes="0;0.04;0.05;0.11;0.12;1" dur="8s" repeatCount="indefinite"/>
      </circle>
      <circle r="4.5" fill="#FBBF24">
        <animateMotion dur="8s" repeatCount="indefinite" keyPoints="0;0;1;1" keyTimes="0;0.19;0.26;1" calcMode="linear" path="M 833 128 L 833 196"/>
        <animate attributeName="opacity" values="0;0;1;1;0;0" keyTimes="0;0.19;0.2;0.26;0.27;1" dur="8s" repeatCount="indefinite"/>
      </circle>
      <circle r="4.5" fill="#34D399">
        <animateMotion dur="8s" repeatCount="indefinite" keyPoints="0;0;1;1" keyTimes="0;0.3;0.38;1" calcMode="linear" path="M 908 220 C 946 220 938 160 976 160"/>
        <animate attributeName="opacity" values="0;0;1;1;0;0" keyTimes="0;0.3;0.31;0.38;0.39;1" dur="8s" repeatCount="indefinite"/>
      </circle>
      <circle r="4.5" fill="#34D399">
        <animateMotion dur="8s" repeatCount="indefinite" keyPoints="0;0;1;1" keyTimes="0;0.5;0.56;1" calcMode="linear" path="M 1036 160 L 1066 160"/>
        <animate attributeName="opacity" values="0;0;1;1;0;0" keyTimes="0;0.5;0.51;0.56;0.57;1" dur="8s" repeatCount="indefinite"/>
      </circle>
    </g>
  </g>
</svg>
